<svg width="209" height="221" viewBox="0 0 209 221" fill="none" xmlns="http://www.w3.org/2000/svg">
<path d="M57.2 89.008C56.7093 89.008 56.2187 88.5787 55.728 87.72C55.2373 86.8613 54.992 85.9413 54.992 84.96C54.992 83.2427 55.6667 82.0773 57.016 81.464C62.7813 78.6427 67.9333 75.8213 72.472 73C77.0107 70.1787 82.3467 67.7867 88.48 65.824C94.1227 64.1067 100.256 62.8187 106.88 61.96C113.627 61.1013 119.637 60.672 124.912 60.672H131.168C134.971 60.672 138.528 60.856 141.84 61.224C145.152 61.592 148.157 62.6347 150.856 64.352C150.856 64.352 151.469 64.5973 152.696 65.088C154.045 65.5787 155.088 66.376 155.824 67.48C156.315 68.0933 156.621 68.768 156.744 69.504C156.867 70.24 156.928 71.0373 156.928 71.896C156.928 72.3867 156.928 72.8773 156.928 73.368C156.928 73.8587 156.867 74.4107 156.744 75.024C156.621 76.0053 156.437 77.1707 156.192 78.52C156.069 79.7467 155.517 80.8507 154.536 81.832C153.8 82.936 152.88 83.672 151.776 84.04C150.672 84.408 149.997 84.592 149.752 84.592H149.384C148.28 84.592 147.483 84.2853 146.992 83.672C146.624 83.0587 146.44 82.3227 146.44 81.464C146.44 79.992 146.685 78.5813 147.176 77.232C147.789 75.76 148.096 74.9627 148.096 74.84V74.656C148.096 73.7973 147.237 72.7547 145.52 71.528C142.576 69.4427 139.08 68.216 135.032 67.848C130.984 67.48 126.507 67.296 121.6 67.296C117.184 67.296 112.155 67.9093 106.512 69.136C100.992 70.24 95.2267 71.8347 89.216 73.92C83.328 76.0053 77.624 78.336 72.104 80.912C66.7067 83.3653 61.9227 86.0027 57.752 88.824C57.6293 88.9467 57.4453 89.008 57.2 89.008ZM85.904 170.336C83.9413 170.336 81.9787 169.539 80.016 167.944C78.176 166.472 77.44 164.019 77.808 160.584C78.176 156.781 79.096 151.936 80.568 146.048C82.1627 140.16 84.064 133.843 86.272 127.096C88.6027 120.227 91.056 113.357 93.632 106.488C96.3307 99.6187 98.9067 93.24 101.36 87.352C103.936 81.3413 106.267 76.312 108.352 72.264C109.456 70.3013 110.989 69.32 112.952 69.32C114.056 69.32 115.037 69.7493 115.896 70.608C116.755 71.344 117.184 72.5093 117.184 74.104C117.184 74.472 117 75.4533 116.632 77.048C116.387 78.6427 115.957 80.36 115.344 82.2C114.853 83.9173 114.301 85.2667 113.688 86.248C112.461 88.2107 110.989 90.296 109.272 92.504C107.555 94.5893 106.021 97.0427 104.672 99.864C98.6613 112.499 94.1227 123.845 91.056 133.904C88.112 143.84 86.3947 151.936 85.904 158.192C85.904 159.051 86.272 159.971 87.008 160.952C87.8667 161.933 88.664 162.915 89.4 163.896C90.2587 164.877 90.688 165.859 90.688 166.84C90.688 167.821 90.0747 168.741 88.848 169.6C88.2347 170.091 87.2533 170.336 85.904 170.336Z" fill="#7A4ED8"/>
<path d="M5 58V23H204V198H5V169" stroke="#7A4ED8" stroke-width="10"/>
</svg>
